<mxfile host="app.diagrams.net" agent="Mozilla/5.0 (Windows NT 10.0; Win64; x64) AppleWebKit/537.36 (KHTML, like Gecko) Chrome/137.0.0.0 Safari/537.36" version="27.1.4">
  <diagram name="PÃ¡gina-1" id="FDHfMuFjTnR_VSdHkqF9">
    <mxGraphModel grid="1" page="1" gridSize="10" guides="1" tooltips="1" connect="1" arrows="1" fold="1" pageScale="1" pageWidth="827" pageHeight="1169" math="0" shadow="0">
      <root>
        <mxCell id="0" />
        <mxCell id="1" parent="0" />
        <mxCell id="_YfHF_74sL87fxs9hmVF-6" value="v: Vendedor" style="html=1;whiteSpace=wrap;" vertex="1" parent="1">
          <mxGeometry x="445" y="360" width="110" height="50" as="geometry" />
        </mxCell>
        <mxCell id="_YfHF_74sL87fxs9hmVF-7" value="&lt;font style=&quot;font-size: 14px;&quot;&gt;2 retornarProductos&lt;/font&gt;" style="endArrow=none;html=1;endSize=12;startArrow=none;startSize=14;startFill=0;edgeStyle=orthogonalEdgeStyle;align=center;verticalAlign=bottom;endFill=0;rounded=0;exitX=0.5;exitY=1;exitDx=0;exitDy=0;entryX=0;entryY=0.5;entryDx=0;entryDy=0;" edge="1" parent="1">
          <mxGeometry x="0.2825" y="15" relative="1" as="geometry">
            <mxPoint x="310.97" y="329.9999999999999" as="sourcePoint" />
            <mxPoint x="444.97" y="384.9999999999999" as="targetPoint" />
            <Array as="points">
              <mxPoint x="310.97" y="395" />
            </Array>
            <mxPoint as="offset" />
          </mxGeometry>
        </mxCell>
        <mxCell id="_YfHF_74sL87fxs9hmVF-8" value="" style="endArrow=classic;html=1;rounded=0;" edge="1" parent="1">
          <mxGeometry width="50" height="50" relative="1" as="geometry">
            <mxPoint x="388" y="410" as="sourcePoint" />
            <mxPoint x="438" y="410" as="targetPoint" />
          </mxGeometry>
        </mxCell>
        <mxCell id="_YfHF_74sL87fxs9hmVF-10" value=":Controller" style="html=1;whiteSpace=wrap;" vertex="1" parent="1">
          <mxGeometry x="290" y="280" width="110" height="50" as="geometry" />
        </mxCell>
        <mxCell id="_YfHF_74sL87fxs9hmVF-11" value="&lt;font style=&quot;font-size: 14px;&quot;&gt;seleccionarNickname(nick):set(DTProducto)&lt;/font&gt;" style="endArrow=none;html=1;endSize=12;startArrow=none;startSize=14;startFill=0;edgeStyle=orthogonalEdgeStyle;align=center;verticalAlign=bottom;endFill=0;rounded=0;" edge="1" parent="1">
          <mxGeometry y="3" relative="1" as="geometry">
            <mxPoint y="305" as="sourcePoint" />
            <mxPoint x="290" y="304.5" as="targetPoint" />
          </mxGeometry>
        </mxCell>
        <mxCell id="_YfHF_74sL87fxs9hmVF-12" value="&lt;font style=&quot;font-size: 14px;&quot;&gt;1 v= find(nick)&lt;/font&gt;" style="endArrow=none;html=1;endSize=12;startArrow=none;startSize=14;startFill=0;edgeStyle=orthogonalEdgeStyle;align=center;verticalAlign=bottom;endFill=0;rounded=0;entryX=0;entryY=0.5;entryDx=0;entryDy=0;" edge="1" parent="1">
          <mxGeometry y="3" relative="1" as="geometry">
            <mxPoint x="400" y="304.5" as="sourcePoint" />
            <mxPoint x="650" y="305" as="targetPoint" />
          </mxGeometry>
        </mxCell>
        <mxCell id="_YfHF_74sL87fxs9hmVF-13" value="Object" style="html=1;whiteSpace=wrap;" vertex="1" parent="1">
          <mxGeometry x="660" y="290" width="110" height="50" as="geometry" />
        </mxCell>
        <mxCell id="_YfHF_74sL87fxs9hmVF-14" value=": Usuario" style="html=1;whiteSpace=wrap;" vertex="1" parent="1">
          <mxGeometry x="650" y="280" width="110" height="50" as="geometry" />
        </mxCell>
        <mxCell id="_YfHF_74sL87fxs9hmVF-17" value="" style="endArrow=classic;html=1;rounded=0;" edge="1" parent="1">
          <mxGeometry width="50" height="50" relative="1" as="geometry">
            <mxPoint x="503.5" y="314.38" as="sourcePoint" />
            <mxPoint x="553.5" y="314.38" as="targetPoint" />
          </mxGeometry>
        </mxCell>
        <mxCell id="_YfHF_74sL87fxs9hmVF-18" value="Object" style="html=1;whiteSpace=wrap;" vertex="1" parent="1">
          <mxGeometry x="700" y="370" width="110" height="50" as="geometry" />
        </mxCell>
        <mxCell id="_YfHF_74sL87fxs9hmVF-19" value=": Producto" style="html=1;whiteSpace=wrap;" vertex="1" parent="1">
          <mxGeometry x="695" y="360" width="110" height="50" as="geometry" />
        </mxCell>
        <mxCell id="_YfHF_74sL87fxs9hmVF-20" value="&lt;span style=&quot;font-size: 14px;&quot;&gt;2.1*[foreach] p=next()&lt;/span&gt;" style="endArrow=none;html=1;endSize=12;startArrow=none;startSize=14;startFill=0;align=center;verticalAlign=bottom;endFill=0;rounded=0;exitX=1;exitY=0.5;exitDx=0;exitDy=0;entryX=0;entryY=0.5;entryDx=0;entryDy=0;" edge="1" parent="1" source="_YfHF_74sL87fxs9hmVF-6" target="_YfHF_74sL87fxs9hmVF-19">
          <mxGeometry x="0.0714" y="5" relative="1" as="geometry">
            <mxPoint x="540" y="410" as="sourcePoint" />
            <mxPoint x="739" y="475.0000000000001" as="targetPoint" />
            <mxPoint as="offset" />
          </mxGeometry>
        </mxCell>
        <mxCell id="_YfHF_74sL87fxs9hmVF-21" value="p: Producto" style="html=1;whiteSpace=wrap;" vertex="1" parent="1">
          <mxGeometry x="215" y="570.0000000000001" width="110" height="50" as="geometry" />
        </mxCell>
        <mxCell id="_YfHF_74sL87fxs9hmVF-22" value="&lt;span style=&quot;font-size: 14px;&quot;&gt;2.2*&amp;nbsp;&lt;/span&gt;&lt;span style=&quot;font-size: 14px;&quot;&gt;&amp;nbsp;[e==false]&amp;nbsp;&lt;/span&gt;&lt;span style=&quot;font-size: 14px;&quot;&gt;retornarDTProducto:&amp;nbsp;&lt;/span&gt;&lt;span style=&quot;font-size: 14px;&quot;&gt;DTProducto&lt;/span&gt;" style="endArrow=none;html=1;endSize=12;startArrow=none;startSize=14;startFill=0;align=center;verticalAlign=bottom;endFill=0;rounded=0;entryX=0;entryY=0.5;entryDx=0;entryDy=0;exitX=0.5;exitY=1;exitDx=0;exitDy=0;edgeStyle=orthogonalEdgeStyle;" edge="1" parent="1" source="_YfHF_74sL87fxs9hmVF-6" target="_YfHF_74sL87fxs9hmVF-21">
          <mxGeometry x="0.0282" y="-10" relative="1" as="geometry">
            <mxPoint x="510" y="510" as="sourcePoint" />
            <mxPoint x="710" y="575" as="targetPoint" />
            <mxPoint as="offset" />
          </mxGeometry>
        </mxCell>
        <mxCell id="_YfHF_74sL87fxs9hmVF-23" value="" style="endArrow=classic;html=1;rounded=0;" edge="1" parent="1">
          <mxGeometry width="50" height="50" relative="1" as="geometry">
            <mxPoint x="395" y="510.0000000000001" as="sourcePoint" />
            <mxPoint x="340" y="510" as="targetPoint" />
          </mxGeometry>
        </mxCell>
        <mxCell id="_YfHF_74sL87fxs9hmVF-33" value="Object" style="html=1;whiteSpace=wrap;" vertex="1" parent="1">
          <mxGeometry x="505" y="580" width="110" height="50" as="geometry" />
        </mxCell>
        <mxCell id="_YfHF_74sL87fxs9hmVF-34" value=": ProdComprado" style="html=1;whiteSpace=wrap;" vertex="1" parent="1">
          <mxGeometry x="495" y="570" width="110" height="50" as="geometry" />
        </mxCell>
        <mxCell id="_YfHF_74sL87fxs9hmVF-35" value="&lt;span style=&quot;font-size: 14px;&quot;&gt;2.2.1*[foreach] c=next()&lt;/span&gt;" style="endArrow=none;html=1;endSize=12;startArrow=none;startSize=14;startFill=0;align=center;verticalAlign=bottom;endFill=0;rounded=0;exitX=1;exitY=0.5;exitDx=0;exitDy=0;entryX=0;entryY=0.5;entryDx=0;entryDy=0;" edge="1" parent="1" source="_YfHF_74sL87fxs9hmVF-21" target="_YfHF_74sL87fxs9hmVF-34">
          <mxGeometry x="0.0714" y="5" relative="1" as="geometry">
            <mxPoint x="326" y="620" as="sourcePoint" />
            <mxPoint x="525" y="685.0000000000001" as="targetPoint" />
            <mxPoint as="offset" />
          </mxGeometry>
        </mxCell>
        <mxCell id="_YfHF_74sL87fxs9hmVF-36" value="c: ProdComprado" style="html=1;whiteSpace=wrap;" vertex="1" parent="1">
          <mxGeometry x="495" y="660.0000000000001" width="110" height="50" as="geometry" />
        </mxCell>
        <mxCell id="_YfHF_74sL87fxs9hmVF-37" value="&lt;span style=&quot;font-size: 14px;&quot;&gt;2.2.2* e=getEnviado():bool&lt;/span&gt;" style="endArrow=none;html=1;endSize=12;startArrow=none;startSize=14;startFill=0;align=center;verticalAlign=bottom;endFill=0;rounded=0;entryX=0;entryY=0.5;entryDx=0;entryDy=0;exitX=0.173;exitY=1.055;exitDx=0;exitDy=0;exitPerimeter=0;edgeStyle=orthogonalEdgeStyle;" edge="1" parent="1" target="_YfHF_74sL87fxs9hmVF-36">
          <mxGeometry x="0.1748" y="5" relative="1" as="geometry">
            <mxPoint x="295" y="623" as="sourcePoint" />
            <mxPoint x="496" y="785" as="targetPoint" />
            <Array as="points">
              <mxPoint x="295" y="695" />
            </Array>
            <mxPoint as="offset" />
          </mxGeometry>
        </mxCell>
        <mxCell id="_YfHF_74sL87fxs9hmVF-38" value="" style="endArrow=classic;html=1;rounded=0;" edge="1" parent="1">
          <mxGeometry width="50" height="50" relative="1" as="geometry">
            <mxPoint x="335" y="710.0000000000001" as="sourcePoint" />
            <mxPoint x="385" y="710.0000000000001" as="targetPoint" />
          </mxGeometry>
        </mxCell>
        <mxCell id="_YfHF_74sL87fxs9hmVF-40" value="" style="endArrow=classic;html=1;rounded=0;" edge="1" parent="1">
          <mxGeometry width="50" height="50" relative="1" as="geometry">
            <mxPoint x="425" y="610" as="sourcePoint" />
            <mxPoint x="475" y="610" as="targetPoint" />
          </mxGeometry>
        </mxCell>
        <mxCell id="_YfHF_74sL87fxs9hmVF-41" value="" style="endArrow=classic;html=1;rounded=0;" edge="1" parent="1">
          <mxGeometry width="50" height="50" relative="1" as="geometry">
            <mxPoint x="635" y="394.40999999999997" as="sourcePoint" />
            <mxPoint x="685" y="394.40999999999997" as="targetPoint" />
          </mxGeometry>
        </mxCell>
        <mxCell id="_YfHF_74sL87fxs9hmVF-42" value=":Controller" style="html=1;whiteSpace=wrap;" vertex="1" parent="1">
          <mxGeometry x="335" y="1250" width="110" height="50" as="geometry" />
        </mxCell>
        <mxCell id="_YfHF_74sL87fxs9hmVF-43" value="Object" style="html=1;whiteSpace=wrap;" vertex="1" parent="1">
          <mxGeometry x="615" y="1260" width="110" height="50" as="geometry" />
        </mxCell>
        <mxCell id="_YfHF_74sL87fxs9hmVF-44" value=": Producto" style="html=1;whiteSpace=wrap;" vertex="1" parent="1">
          <mxGeometry x="605" y="1250" width="110" height="50" as="geometry" />
        </mxCell>
        <mxCell id="_YfHF_74sL87fxs9hmVF-45" value="&lt;span style=&quot;font-size: 14px;&quot;&gt;1 p=find(DTProducto.id)&lt;/span&gt;" style="endArrow=none;html=1;endSize=12;startArrow=none;startSize=14;startFill=0;edgeStyle=orthogonalEdgeStyle;align=center;verticalAlign=bottom;endFill=0;rounded=0;entryX=0;entryY=0.5;entryDx=0;entryDy=0;" edge="1" parent="1" target="_YfHF_74sL87fxs9hmVF-44">
          <mxGeometry y="3" relative="1" as="geometry">
            <mxPoint x="445" y="1274.5" as="sourcePoint" />
            <mxPoint x="605" y="1274.5" as="targetPoint" />
          </mxGeometry>
        </mxCell>
        <mxCell id="_YfHF_74sL87fxs9hmVF-46" value="&lt;font style=&quot;font-size: 14px;&quot;&gt;seleccionarProducto(DTProducto):set(DTCompra&lt;/font&gt;&lt;span style=&quot;font-size: 14px; background-color: light-dark(#ffffff, var(--ge-dark-color, #121212)); color: light-dark(rgb(0, 0, 0), rgb(255, 255, 255));&quot;&gt;)&lt;/span&gt;" style="endArrow=none;html=1;endSize=12;startArrow=none;startSize=14;startFill=0;edgeStyle=orthogonalEdgeStyle;align=center;verticalAlign=bottom;endFill=0;rounded=0;" edge="1" parent="1">
          <mxGeometry y="3" relative="1" as="geometry">
            <mxPoint x="5" y="1275" as="sourcePoint" />
            <mxPoint x="335" y="1274.5" as="targetPoint" />
          </mxGeometry>
        </mxCell>
        <mxCell id="_YfHF_74sL87fxs9hmVF-47" value="" style="endArrow=classic;html=1;rounded=0;" edge="1" parent="1">
          <mxGeometry width="50" height="50" relative="1" as="geometry">
            <mxPoint x="495" y="1284.37" as="sourcePoint" />
            <mxPoint x="545" y="1284.37" as="targetPoint" />
          </mxGeometry>
        </mxCell>
        <mxCell id="_YfHF_74sL87fxs9hmVF-51" value="c:&lt;span style=&quot;background-color: transparent; color: light-dark(rgb(0, 0, 0), rgb(255, 255, 255));&quot;&gt;&amp;nbsp;Compra&lt;/span&gt;" style="html=1;whiteSpace=wrap;" vertex="1" parent="1">
          <mxGeometry x="430" y="1650" width="110" height="50" as="geometry" />
        </mxCell>
        <mxCell id="_YfHF_74sL87fxs9hmVF-52" value="&lt;span style=&quot;font-size: 14px;&quot;&gt;2.2.1 [e==false] retornarDTCompra:DTCompra&lt;/span&gt;" style="endArrow=none;html=1;endSize=12;startArrow=none;startSize=14;startFill=0;align=center;verticalAlign=bottom;endFill=0;rounded=0;exitX=0.088;exitY=1.003;exitDx=0;exitDy=0;entryX=-0.002;entryY=0.392;entryDx=0;entryDy=0;exitPerimeter=0;entryPerimeter=0;" edge="1" parent="1" source="9ofJSgtiLPXpcXj1LJoZ-37" target="_YfHF_74sL87fxs9hmVF-51">
          <mxGeometry x="0.5325" relative="1" as="geometry">
            <mxPoint x="423.44000000000005" y="1570" as="sourcePoint" />
            <mxPoint x="621.94" y="1784.5" as="targetPoint" />
            <mxPoint as="offset" />
            <Array as="points">
              <mxPoint x="370" y="1610" />
              <mxPoint x="120" y="1610" />
              <mxPoint x="120" y="1670" />
            </Array>
          </mxGeometry>
        </mxCell>
        <mxCell id="_YfHF_74sL87fxs9hmVF-53" value="" style="endArrow=classic;html=1;rounded=0;" edge="1" parent="1">
          <mxGeometry width="50" height="50" relative="1" as="geometry">
            <mxPoint x="230" y="1680" as="sourcePoint" />
            <mxPoint x="280" y="1680" as="targetPoint" />
          </mxGeometry>
        </mxCell>
        <mxCell id="_YfHF_74sL87fxs9hmVF-67" value=":Controller" style="html=1;whiteSpace=wrap;" vertex="1" parent="1">
          <mxGeometry x="240" y="1870" width="110" height="50" as="geometry" />
        </mxCell>
        <mxCell id="_YfHF_74sL87fxs9hmVF-68" value="Object" style="html=1;whiteSpace=wrap;" vertex="1" parent="1">
          <mxGeometry x="520" y="1880" width="110" height="50" as="geometry" />
        </mxCell>
        <mxCell id="_YfHF_74sL87fxs9hmVF-69" value=": Compra" style="html=1;whiteSpace=wrap;" vertex="1" parent="1">
          <mxGeometry x="510" y="1870" width="110" height="50" as="geometry" />
        </mxCell>
        <mxCell id="_YfHF_74sL87fxs9hmVF-70" value="&lt;span style=&quot;font-size: 14px;&quot;&gt;1 c=find(DTCompra)&lt;/span&gt;" style="endArrow=none;html=1;endSize=12;startArrow=none;startSize=14;startFill=0;edgeStyle=orthogonalEdgeStyle;align=center;verticalAlign=bottom;endFill=0;rounded=0;entryX=0;entryY=0.5;entryDx=0;entryDy=0;" edge="1" parent="1" target="_YfHF_74sL87fxs9hmVF-69">
          <mxGeometry y="3" relative="1" as="geometry">
            <mxPoint x="350" y="1894.5" as="sourcePoint" />
            <mxPoint x="510" y="1894.5" as="targetPoint" />
          </mxGeometry>
        </mxCell>
        <mxCell id="_YfHF_74sL87fxs9hmVF-71" value="&lt;font style=&quot;font-size: 14px;&quot;&gt;seleccionarCompra(DTCompra&lt;/font&gt;&lt;span style=&quot;font-size: 14px; background-color: light-dark(#ffffff, var(--ge-dark-color, #121212)); color: light-dark(rgb(0, 0, 0), rgb(255, 255, 255));&quot;&gt;)&lt;/span&gt;" style="endArrow=none;html=1;endSize=12;startArrow=none;startSize=14;startFill=0;edgeStyle=orthogonalEdgeStyle;align=center;verticalAlign=bottom;endFill=0;rounded=0;" edge="1" parent="1">
          <mxGeometry y="3" relative="1" as="geometry">
            <mxPoint x="10" y="1895" as="sourcePoint" />
            <mxPoint x="240" y="1894.5" as="targetPoint" />
          </mxGeometry>
        </mxCell>
        <mxCell id="_YfHF_74sL87fxs9hmVF-72" value="" style="endArrow=classic;html=1;rounded=0;" edge="1" parent="1">
          <mxGeometry width="50" height="50" relative="1" as="geometry">
            <mxPoint x="400" y="1904.37" as="sourcePoint" />
            <mxPoint x="450" y="1904.37" as="targetPoint" />
          </mxGeometry>
        </mxCell>
        <mxCell id="_YfHF_74sL87fxs9hmVF-73" value="c:&lt;span style=&quot;background-color: transparent; color: light-dark(rgb(0, 0, 0), rgb(255, 255, 255));&quot;&gt;&amp;nbsp;Compra&lt;/span&gt;" style="html=1;whiteSpace=wrap;" vertex="1" parent="1">
          <mxGeometry x="450" y="1960" width="110" height="50" as="geometry" />
        </mxCell>
        <mxCell id="_YfHF_74sL87fxs9hmVF-74" value="&lt;span style=&quot;font-size: 14px;&quot;&gt;2 enviarProducto&lt;/span&gt;" style="endArrow=none;html=1;endSize=12;startArrow=none;startSize=14;startFill=0;edgeStyle=orthogonalEdgeStyle;align=center;verticalAlign=bottom;endFill=0;rounded=0;exitX=0.5;exitY=1;exitDx=0;exitDy=0;entryX=0;entryY=0.5;entryDx=0;entryDy=0;" edge="1" parent="1" target="_YfHF_74sL87fxs9hmVF-73">
          <mxGeometry x="0.3722" y="5" relative="1" as="geometry">
            <mxPoint x="292" y="1920" as="sourcePoint" />
            <mxPoint x="497" y="2024.5" as="targetPoint" />
            <Array as="points">
              <mxPoint x="292" y="1985" />
            </Array>
            <mxPoint as="offset" />
          </mxGeometry>
        </mxCell>
        <mxCell id="_YfHF_74sL87fxs9hmVF-75" value="" style="endArrow=classic;html=1;rounded=0;" edge="1" parent="1">
          <mxGeometry width="50" height="50" relative="1" as="geometry">
            <mxPoint x="371" y="2000" as="sourcePoint" />
            <mxPoint x="421" y="2000" as="targetPoint" />
          </mxGeometry>
        </mxCell>
        <mxCell id="_YfHF_74sL87fxs9hmVF-76" value="ProdComprado" style="html=1;whiteSpace=wrap;" vertex="1" parent="1">
          <mxGeometry x="600" y="2050" width="110" height="50" as="geometry" />
        </mxCell>
        <mxCell id="_YfHF_74sL87fxs9hmVF-78" value="" style="endArrow=classic;html=1;rounded=0;" edge="1" parent="1">
          <mxGeometry width="50" height="50" relative="1" as="geometry">
            <mxPoint x="490" y="2090" as="sourcePoint" />
            <mxPoint x="540" y="2090" as="targetPoint" />
          </mxGeometry>
        </mxCell>
        <mxCell id="_YfHF_74sL87fxs9hmVF-79" value="&lt;span style=&quot;font-size: 14px;&quot;&gt;2.1 enviarProducto(p)&lt;/span&gt;" style="endArrow=none;html=1;endSize=12;startArrow=none;startSize=14;startFill=0;align=center;verticalAlign=bottom;endFill=0;rounded=0;exitX=0;exitY=1;exitDx=0;exitDy=0;entryX=-0.001;entryY=0.597;entryDx=0;entryDy=0;entryPerimeter=0;" edge="1" parent="1" source="_YfHF_74sL87fxs9hmVF-73" target="_YfHF_74sL87fxs9hmVF-76">
          <mxGeometry x="0.3576" relative="1" as="geometry">
            <mxPoint x="550" y="2010" as="sourcePoint" />
            <mxPoint x="758" y="2075" as="targetPoint" />
            <mxPoint as="offset" />
            <Array as="points">
              <mxPoint x="450" y="2080" />
            </Array>
          </mxGeometry>
        </mxCell>
        <mxCell id="_YfHF_74sL87fxs9hmVF-80" value="Enviado pasa a ser true" style="shape=note2;boundedLbl=1;whiteSpace=wrap;html=1;size=25;verticalAlign=top;align=center;" vertex="1" parent="1">
          <mxGeometry x="740" y="1950" width="70" height="85" as="geometry" />
        </mxCell>
        <mxCell id="_YfHF_74sL87fxs9hmVF-81" value="" style="endArrow=none;dashed=1;html=1;rounded=0;entryX=0;entryY=0.5;entryDx=0;entryDy=0;entryPerimeter=0;exitX=1;exitY=0.25;exitDx=0;exitDy=0;" edge="1" parent="1" source="_YfHF_74sL87fxs9hmVF-76" target="_YfHF_74sL87fxs9hmVF-80">
          <mxGeometry width="50" height="50" relative="1" as="geometry">
            <mxPoint x="590" y="2070" as="sourcePoint" />
            <mxPoint x="572" y="1955" as="targetPoint" />
          </mxGeometry>
        </mxCell>
        <mxCell id="9ofJSgtiLPXpcXj1LJoZ-10" value=":Controller" style="html=1;whiteSpace=wrap;" vertex="1" parent="1">
          <mxGeometry x="190" y="110" width="110" height="50" as="geometry" />
        </mxCell>
        <mxCell id="9ofJSgtiLPXpcXj1LJoZ-11" value="Object" style="html=1;whiteSpace=wrap;" vertex="1" parent="1">
          <mxGeometry x="560" y="120" width="110" height="50" as="geometry" />
        </mxCell>
        <mxCell id="9ofJSgtiLPXpcXj1LJoZ-12" value=": Usuario" style="html=1;whiteSpace=wrap;" vertex="1" parent="1">
          <mxGeometry x="550" y="110" width="110" height="50" as="geometry" />
        </mxCell>
        <mxCell id="9ofJSgtiLPXpcXj1LJoZ-13" value="&lt;font style=&quot;font-size: 14px;&quot;&gt;1* [foreach] u=next()&lt;/font&gt;" style="endArrow=none;html=1;endSize=12;startArrow=none;startSize=14;startFill=0;edgeStyle=orthogonalEdgeStyle;align=center;verticalAlign=bottom;endFill=0;rounded=0;entryX=0;entryY=0.5;entryDx=0;entryDy=0;" edge="1" parent="1" target="9ofJSgtiLPXpcXj1LJoZ-12">
          <mxGeometry y="3" relative="1" as="geometry">
            <mxPoint x="300" y="134.5" as="sourcePoint" />
            <mxPoint x="460" y="134.5" as="targetPoint" />
          </mxGeometry>
        </mxCell>
        <mxCell id="9ofJSgtiLPXpcXj1LJoZ-14" value="&lt;font style=&quot;font-size: 14px;&quot;&gt;listarNickVendedor():set(nick)&lt;/font&gt;" style="endArrow=none;html=1;endSize=12;startArrow=none;startSize=14;startFill=0;edgeStyle=orthogonalEdgeStyle;align=center;verticalAlign=bottom;endFill=0;rounded=0;entryX=0;entryY=0.5;entryDx=0;entryDy=0;" edge="1" parent="1" target="9ofJSgtiLPXpcXj1LJoZ-10">
          <mxGeometry y="3" relative="1" as="geometry">
            <mxPoint y="134.5" as="sourcePoint" />
            <mxPoint x="160" y="134.5" as="targetPoint" />
          </mxGeometry>
        </mxCell>
        <mxCell id="9ofJSgtiLPXpcXj1LJoZ-15" value="u: Usuario" style="html=1;whiteSpace=wrap;" vertex="1" parent="1">
          <mxGeometry x="530" y="200" width="110" height="50" as="geometry" />
        </mxCell>
        <mxCell id="9ofJSgtiLPXpcXj1LJoZ-16" value="&lt;font style=&quot;font-size: 14px;&quot;&gt;2* [u==Vendedor] n=getNick:str&lt;/font&gt;" style="endArrow=none;html=1;endSize=12;startArrow=none;startSize=14;startFill=0;edgeStyle=orthogonalEdgeStyle;align=center;verticalAlign=bottom;endFill=0;rounded=0;exitX=0.5;exitY=1;exitDx=0;exitDy=0;entryX=0;entryY=0.5;entryDx=0;entryDy=0;" edge="1" parent="1" source="9ofJSgtiLPXpcXj1LJoZ-10" target="9ofJSgtiLPXpcXj1LJoZ-15">
          <mxGeometry x="0.0714" y="5" relative="1" as="geometry">
            <mxPoint x="290" y="264.5" as="sourcePoint" />
            <mxPoint x="450" y="264.5" as="targetPoint" />
            <Array as="points">
              <mxPoint x="245" y="225" />
            </Array>
            <mxPoint as="offset" />
          </mxGeometry>
        </mxCell>
        <mxCell id="9ofJSgtiLPXpcXj1LJoZ-17" value="" style="endArrow=classic;html=1;rounded=0;" edge="1" parent="1">
          <mxGeometry width="50" height="50" relative="1" as="geometry">
            <mxPoint x="324" y="240" as="sourcePoint" />
            <mxPoint x="374" y="240" as="targetPoint" />
          </mxGeometry>
        </mxCell>
        <mxCell id="9ofJSgtiLPXpcXj1LJoZ-18" value="" style="endArrow=classic;html=1;rounded=0;" edge="1" parent="1">
          <mxGeometry width="50" height="50" relative="1" as="geometry">
            <mxPoint x="390" y="144.5" as="sourcePoint" />
            <mxPoint x="440" y="144.5" as="targetPoint" />
          </mxGeometry>
        </mxCell>
        <mxCell id="9ofJSgtiLPXpcXj1LJoZ-19" value="&lt;span style=&quot;font-size: 14px;&quot;&gt;2.2.3 d=create(p)&lt;/span&gt;" style="endArrow=none;html=1;endSize=12;startArrow=none;startSize=14;startFill=0;align=center;verticalAlign=bottom;endFill=0;rounded=0;exitX=0.25;exitY=1;exitDx=0;exitDy=0;entryX=0;entryY=0.5;entryDx=0;entryDy=0;edgeStyle=orthogonalEdgeStyle;" edge="1" parent="1" source="_YfHF_74sL87fxs9hmVF-21" target="9ofJSgtiLPXpcXj1LJoZ-20">
          <mxGeometry x="0.3948" y="5" relative="1" as="geometry">
            <mxPoint x="195" y="775" as="sourcePoint" />
            <mxPoint x="385" y="775" as="targetPoint" />
            <mxPoint as="offset" />
          </mxGeometry>
        </mxCell>
        <mxCell id="9ofJSgtiLPXpcXj1LJoZ-20" value=": DTProducto" style="html=1;whiteSpace=wrap;" vertex="1" parent="1">
          <mxGeometry x="395" y="740" width="110" height="50" as="geometry" />
        </mxCell>
        <mxCell id="9ofJSgtiLPXpcXj1LJoZ-21" value="" style="endArrow=classic;html=1;rounded=0;" edge="1" parent="1">
          <mxGeometry width="50" height="50" relative="1" as="geometry">
            <mxPoint x="285" y="780" as="sourcePoint" />
            <mxPoint x="335" y="780" as="targetPoint" />
          </mxGeometry>
        </mxCell>
        <mxCell id="9ofJSgtiLPXpcXj1LJoZ-22" value="&lt;span style=&quot;font-size: 14px;&quot;&gt;2.2.1.1d=create(c)&lt;/span&gt;" style="endArrow=none;html=1;endSize=12;startArrow=none;startSize=14;startFill=0;edgeStyle=orthogonalEdgeStyle;align=center;verticalAlign=bottom;endFill=0;rounded=0;exitX=1;exitY=0.5;exitDx=0;exitDy=0;entryX=0;entryY=0.5;entryDx=0;entryDy=0;" edge="1" parent="1" source="_YfHF_74sL87fxs9hmVF-51" target="9ofJSgtiLPXpcXj1LJoZ-24">
          <mxGeometry x="-0.0769" y="5" relative="1" as="geometry">
            <mxPoint x="970" y="1560" as="sourcePoint" />
            <mxPoint x="1040" y="1545" as="targetPoint" />
            <mxPoint as="offset" />
          </mxGeometry>
        </mxCell>
        <mxCell id="9ofJSgtiLPXpcXj1LJoZ-24" value=": DTCompra" style="html=1;whiteSpace=wrap;" vertex="1" parent="1">
          <mxGeometry x="670" y="1650" width="110" height="50" as="geometry" />
        </mxCell>
        <mxCell id="9ofJSgtiLPXpcXj1LJoZ-31" value="p: Producto" style="html=1;whiteSpace=wrap;" vertex="1" parent="1">
          <mxGeometry x="555" y="1350" width="110" height="50" as="geometry" />
        </mxCell>
        <mxCell id="9ofJSgtiLPXpcXj1LJoZ-32" value="&lt;font style=&quot;font-size: 14px;&quot;&gt;2 retornarProductosPendientes&lt;/font&gt;" style="endArrow=none;html=1;endSize=12;startArrow=none;startSize=14;startFill=0;align=center;verticalAlign=bottom;endFill=0;rounded=0;exitX=0.5;exitY=1;exitDx=0;exitDy=0;entryX=0;entryY=0.5;entryDx=0;entryDy=0;edgeStyle=orthogonalEdgeStyle;" edge="1" parent="1" target="9ofJSgtiLPXpcXj1LJoZ-31">
          <mxGeometry x="0.3357" y="15" relative="1" as="geometry">
            <mxPoint x="376" y="1300" as="sourcePoint" />
            <mxPoint x="581" y="1404.5" as="targetPoint" />
            <Array as="points">
              <mxPoint x="360" y="1300" />
              <mxPoint x="360" y="1375" />
            </Array>
            <mxPoint as="offset" />
          </mxGeometry>
        </mxCell>
        <mxCell id="9ofJSgtiLPXpcXj1LJoZ-33" value="" style="endArrow=classic;html=1;rounded=0;" edge="1" parent="1">
          <mxGeometry width="50" height="50" relative="1" as="geometry">
            <mxPoint x="430" y="1384.58" as="sourcePoint" />
            <mxPoint x="480" y="1384.58" as="targetPoint" />
          </mxGeometry>
        </mxCell>
        <mxCell id="9ofJSgtiLPXpcXj1LJoZ-34" value="Object" style="html=1;whiteSpace=wrap;" vertex="1" parent="1">
          <mxGeometry x="717" y="1460" width="110" height="50" as="geometry" />
        </mxCell>
        <mxCell id="9ofJSgtiLPXpcXj1LJoZ-35" value=": ProdComprado" style="html=1;whiteSpace=wrap;" vertex="1" parent="1">
          <mxGeometry x="707" y="1450" width="110" height="50" as="geometry" />
        </mxCell>
        <mxCell id="9ofJSgtiLPXpcXj1LJoZ-36" value="&lt;span style=&quot;font-size: 14px;&quot;&gt;2.1*[foreach] c=next()&lt;/span&gt;" style="endArrow=none;html=1;endSize=12;startArrow=none;startSize=14;startFill=0;align=center;verticalAlign=bottom;endFill=0;rounded=0;exitX=0.5;exitY=1;exitDx=0;exitDy=0;entryX=0;entryY=0.5;entryDx=0;entryDy=0;" edge="1" parent="1" source="9ofJSgtiLPXpcXj1LJoZ-31" target="9ofJSgtiLPXpcXj1LJoZ-35">
          <mxGeometry x="0.2209" y="-25" relative="1" as="geometry">
            <mxPoint x="685" y="1375" as="sourcePoint" />
            <mxPoint x="885" y="1465" as="targetPoint" />
            <mxPoint as="offset" />
            <Array as="points">
              <mxPoint x="610" y="1475" />
            </Array>
          </mxGeometry>
        </mxCell>
        <mxCell id="9ofJSgtiLPXpcXj1LJoZ-37" value="c: ProdComprado" style="html=1;whiteSpace=wrap;" vertex="1" parent="1">
          <mxGeometry x="360" y="1520" width="110" height="50" as="geometry" />
        </mxCell>
        <mxCell id="9ofJSgtiLPXpcXj1LJoZ-38" value="&lt;span style=&quot;font-size: 14px;&quot;&gt;2.2* e=getEnviado():bool&lt;/span&gt;" style="endArrow=none;html=1;endSize=12;startArrow=none;startSize=14;startFill=0;align=center;verticalAlign=bottom;endFill=0;rounded=0;entryX=0.071;entryY=0.014;entryDx=0;entryDy=0;edgeStyle=orthogonalEdgeStyle;exitX=0.314;exitY=1.07;exitDx=0;exitDy=0;exitPerimeter=0;entryPerimeter=0;" edge="1" parent="1" source="9ofJSgtiLPXpcXj1LJoZ-31" target="9ofJSgtiLPXpcXj1LJoZ-37">
          <mxGeometry x="-0.0203" relative="1" as="geometry">
            <mxPoint x="590" y="1430" as="sourcePoint" />
            <mxPoint x="431" y="1645" as="targetPoint" />
            <mxPoint as="offset" />
            <Array as="points">
              <mxPoint x="590" y="1440" />
              <mxPoint x="368" y="1440" />
            </Array>
          </mxGeometry>
        </mxCell>
        <mxCell id="9ofJSgtiLPXpcXj1LJoZ-39" value="" style="endArrow=classic;html=1;rounded=0;" edge="1" parent="1">
          <mxGeometry width="50" height="50" relative="1" as="geometry">
            <mxPoint x="495" y="1450" as="sourcePoint" />
            <mxPoint x="446" y="1450" as="targetPoint" />
          </mxGeometry>
        </mxCell>
        <mxCell id="9ofJSgtiLPXpcXj1LJoZ-40" value="" style="endArrow=classic;html=1;rounded=0;" edge="1" parent="1">
          <mxGeometry width="50" height="50" relative="1" as="geometry">
            <mxPoint x="620" y="1460" as="sourcePoint" />
            <mxPoint x="670" y="1460" as="targetPoint" />
          </mxGeometry>
        </mxCell>
        <mxCell id="9ofJSgtiLPXpcXj1LJoZ-41" value="" style="endArrow=classic;html=1;rounded=0;" edge="1" parent="1">
          <mxGeometry width="50" height="50" relative="1" as="geometry">
            <mxPoint x="580" y="1690" as="sourcePoint" />
            <mxPoint x="630" y="1690" as="targetPoint" />
            <Array as="points">
              <mxPoint x="610" y="1690" />
            </Array>
          </mxGeometry>
        </mxCell>
        <mxCell id="9ofJSgtiLPXpcXj1LJoZ-43" value="Recuerdo producto no enviado" style="shape=note2;boundedLbl=1;whiteSpace=wrap;html=1;size=25;verticalAlign=top;align=center;" vertex="1" parent="1">
          <mxGeometry x="205" y="1337" width="70" height="85" as="geometry" />
        </mxCell>
        <mxCell id="9ofJSgtiLPXpcXj1LJoZ-44" value="" style="endArrow=none;dashed=1;html=1;rounded=0;entryX=0;entryY=0;entryDx=70;entryDy=25;entryPerimeter=0;exitX=0;exitY=1;exitDx=0;exitDy=0;" edge="1" parent="1" source="_YfHF_74sL87fxs9hmVF-42" target="9ofJSgtiLPXpcXj1LJoZ-43">
          <mxGeometry width="50" height="50" relative="1" as="geometry">
            <mxPoint x="95" y="1440" as="sourcePoint" />
            <mxPoint x="-163" y="1422" as="targetPoint" />
          </mxGeometry>
        </mxCell>
        <mxCell id="bTJzCoeLJEru7DeKjxnV-1" value="&lt;font style=&quot;font-size: 24px;&quot;&gt;&lt;b&gt;Enviar Producto&lt;/b&gt;&lt;/font&gt;" style="text;html=1;align=center;verticalAlign=middle;resizable=0;points=[];autosize=1;strokeColor=none;fillColor=none;" vertex="1" parent="1">
          <mxGeometry x="309" width="210" height="40" as="geometry" />
        </mxCell>
      </root>
    </mxGraphModel>
  </diagram>
</mxfile>
